<?xml version="1.0" encoding="UTF-8" standalone="no"?>
<svg width="441px" height="801px" viewBox="0 0 441 801" version="1.1" xmlns="http://www.w3.org/2000/svg" xmlns:xlink="http://www.w3.org/1999/xlink" xmlns:sketch="http://www.bohemiancoding.com/sketch/ns">
    <!-- Generator: Sketch 3.3.3 (12072) - http://www.bohemiancoding.com/sketch -->
    <title>Imported Layers</title>
    <desc>Created with Sketch.</desc>
    <defs></defs>
    <g id="palettes" stroke="none" stroke-width="1" fill="none" fill-rule="evenodd" sketch:type="MSPage">
        <g id="Imported-Layers" sketch:type="MSLayerGroup">
            <path d="M0.105,0.611 L439.864,0.611 L439.864,800.071 L0.105,800.071 L0.105,0.611 Z" id="Fill-1" fill="#1A1918" sketch:type="MSShapeGroup"></path>
            <path d="M439.864,800.071 L23.744,747.573 L23.744,0.611 L439.864,0.611 L439.864,800.071 L439.864,800.071 Z" id="Fill-2" fill="#1A1918" sketch:type="MSShapeGroup"></path>
            <path d="M439.864,800.071 L23.744,747.573 L23.744,0.611 L439.864,0.611 L439.864,800.071 L439.864,800.071 Z" id="Stroke-3" stroke="#FFFFFF" sketch:type="MSShapeGroup"></path>
            <path d="M53.191,34.333 L70.522,34.333 C75.333,34.333 78.54,35.689 80.883,38.157 C82.857,40.254 83.967,43.029 83.967,46.668 C83.967,54.809 79.218,59.25 69.967,59.25 L57.323,59.25 L57.323,78.431 L53.191,78.431 L53.191,34.333 L53.191,34.333 Z M69.658,55.734 C76.813,55.734 79.773,52.342 79.773,46.792 C79.773,41.117 76.381,37.972 70.028,37.972 L57.323,37.972 L57.323,55.734 L69.658,55.734 L69.658,55.734 Z" id="Fill-4" fill="#FFFFFF" sketch:type="MSShapeGroup"></path>
            <path d="M89.247,64.431 L89.247,34.333 L93.379,34.333 L93.379,64.06 C93.379,72.202 97.758,75.532 105.468,75.532 C112.807,75.532 117.495,72.202 117.495,64.06 L117.495,34.333 L121.627,34.333 L121.627,64.431 C121.627,74.669 114.842,79.109 105.283,79.109 C95.661,79.109 89.247,74.545 89.247,64.431" id="Fill-5" fill="#FFFFFF" sketch:type="MSShapeGroup"></path>
            <path d="M130.242,34.333 L148.56,34.333 C152.507,34.333 155.714,35.443 157.935,37.54 C159.97,39.39 161.142,42.104 161.142,45.435 C161.142,50.43 158.86,53.452 154.419,54.994 L154.419,55.179 C159.477,56.598 162.992,60.175 162.992,66.034 C162.992,69.611 161.882,72.51 159.785,74.669 C157.503,77.013 153.926,78.431 149.362,78.431 L130.242,78.431 L130.242,34.333 L130.242,34.333 Z M148.498,53.699 C153.864,53.699 156.948,50.554 156.948,45.743 C156.948,40.747 153.741,37.972 148.622,37.972 L134.374,37.972 L134.374,53.699 L148.498,53.699 L148.498,53.699 Z M149.115,74.669 C152.507,74.669 154.974,73.682 156.578,72.14 C157.997,70.722 158.798,68.687 158.798,66.096 C158.798,60.483 154.913,57.276 149.115,57.276 L134.374,57.276 L134.374,74.669 L149.115,74.669 L149.115,74.669 Z" id="Fill-6" fill="#FFFFFF" sketch:type="MSShapeGroup"></path>
            <path d="M169.85,34.333 L173.982,34.333 L173.982,74.607 L197.48,74.607 L197.48,78.431 L169.85,78.431 L169.85,34.333" id="Fill-7" fill="#FFFFFF" sketch:type="MSShapeGroup"></path>
            <path d="M203.099,34.333 L207.231,34.333 L207.231,78.431 L203.099,78.431 L203.099,34.333 Z" id="Fill-8" fill="#FFFFFF" sketch:type="MSShapeGroup"></path>
            <path d="M214.379,56.413 C214.379,43.091 221.966,33.408 234.424,33.408 C243.737,33.408 249.905,38.588 251.385,46.792 L247.315,46.792 C246.143,41.056 241.579,36.985 234.362,36.985 C224.001,36.985 218.697,45.558 218.697,56.413 C218.697,67.453 224.186,75.594 234.301,75.594 C242.812,75.594 247.438,69.673 248.116,62.396 L252.125,62.396 C251.878,66.713 250.213,71.03 247.561,73.929 C244.478,77.383 239.852,79.233 234.239,79.233 C221.966,79.233 214.379,69.92 214.379,56.413" id="Fill-9" fill="#FFFFFF" sketch:type="MSShapeGroup"></path>
            <path d="M50.662,138.134 L54.794,138.134 C55.226,145.597 60.284,149.791 68.548,149.791 C75.024,149.791 79.835,146.522 79.835,140.54 C79.835,134.31 75.703,132.83 66.266,130.918 C58.125,129.314 52.389,126.847 52.389,119.138 C52.389,112.107 58.31,107.481 67.13,107.481 C76.936,107.481 81.87,112.785 82.672,120.371 L78.663,120.371 C77.923,114.142 73.482,110.935 67.191,110.935 C60.469,110.935 56.398,114.142 56.398,119.015 C56.398,124.257 60.469,125.86 68.363,127.341 C76.936,129.006 84.029,131.103 84.029,140.354 C84.029,148.187 77.738,153.245 68.486,153.245 C56.892,153.245 51.156,146.707 50.662,138.134" id="Fill-10" fill="#FFFFFF" sketch:type="MSShapeGroup"></path>
            <path d="M90.931,108.345 L120.905,108.345 L120.905,111.983 L95.063,111.983 L95.063,127.834 L118.747,127.834 L118.747,131.411 L95.063,131.411 L95.063,148.619 L121.583,148.619 L121.583,152.443 L90.931,152.443 L90.931,108.345" id="Fill-11" fill="#FFFFFF" sketch:type="MSShapeGroup"></path>
            <path d="M127.486,108.345 L145.434,108.345 C150.183,108.345 153.452,109.763 155.733,112.168 C157.769,114.266 158.817,117.041 158.817,120.68 C158.817,126.909 155.61,131.042 149.998,132.583 L160.482,152.443 L155.919,152.443 L145.927,133.138 L131.618,133.138 L131.618,152.443 L127.486,152.443 L127.486,108.345 L127.486,108.345 Z M144.693,129.623 C151.725,129.623 154.685,126.354 154.685,120.803 C154.685,115.129 151.355,111.983 144.878,111.983 L131.618,111.983 L131.618,129.623 L144.693,129.623 L144.693,129.623 Z" id="Fill-12" fill="#FFFFFF" sketch:type="MSShapeGroup"></path>
            <path d="M161.79,108.345 L166.107,108.345 L177.517,140.91 C178.504,143.623 179.861,148.187 179.861,148.187 L179.984,148.187 C179.984,148.187 181.403,143.438 182.39,140.725 L193.861,108.345 L198.055,108.345 L182.081,152.443 L177.579,152.443 L161.79,108.345" id="Fill-13" fill="#FFFFFF" sketch:type="MSShapeGroup"></path>
            <path d="M203.254,108.345 L207.386,108.345 L207.386,152.443 L203.254,152.443 L203.254,108.345 Z" id="Fill-14" fill="#FFFFFF" sketch:type="MSShapeGroup"></path>
            <path d="M214.534,130.424 C214.534,117.102 222.121,107.419 234.579,107.419 C243.892,107.419 250.06,112.6 251.54,120.803 L247.469,120.803 C246.297,115.067 241.733,110.997 234.518,110.997 C224.156,110.997 218.852,119.569 218.852,130.424 C218.852,141.464 224.341,149.606 234.456,149.606 C242.967,149.606 247.593,143.685 248.271,136.407 L252.28,136.407 C252.033,140.725 250.368,145.042 247.716,147.94 C244.632,151.395 240.006,153.245 234.394,153.245 C222.121,153.245 214.534,143.932 214.534,130.424" id="Fill-15" fill="#FFFFFF" sketch:type="MSShapeGroup"></path>
            <path d="M258.774,108.345 L288.748,108.345 L288.748,111.983 L262.906,111.983 L262.906,127.834 L286.59,127.834 L286.59,131.411 L262.906,131.411 L262.906,148.619 L289.427,148.619 L289.427,152.443 L258.774,152.443 L258.774,108.345" id="Fill-16" fill="#FFFFFF" sketch:type="MSShapeGroup"></path>
            <path d="M292.301,138.134 L296.433,138.134 C296.864,145.597 301.922,149.791 310.186,149.791 C316.662,149.791 321.473,146.522 321.473,140.54 C321.473,134.31 317.341,132.83 307.904,130.918 C299.764,129.314 294.027,126.847 294.027,119.138 C294.027,112.107 299.948,107.481 308.768,107.481 C318.574,107.481 323.509,112.785 324.31,120.371 L320.302,120.371 C319.561,114.142 315.12,110.935 308.829,110.935 C302.106,110.935 298.036,114.142 298.036,119.015 C298.036,124.257 302.106,125.86 310.001,127.341 C318.574,129.006 325.667,131.103 325.667,140.354 C325.667,148.187 319.376,153.245 310.125,153.245 C298.529,153.245 292.794,146.707 292.301,138.134" id="Fill-17" fill="#FFFFFF" sketch:type="MSShapeGroup"></path>
            <path d="M53.191,182.356 L70.522,182.356 C75.333,182.356 78.54,183.712 80.883,186.18 C82.857,188.277 83.967,191.052 83.967,194.691 C83.967,202.832 79.218,207.273 69.967,207.273 L57.323,207.273 L57.323,226.454 L53.191,226.454 L53.191,182.356 L53.191,182.356 Z M69.658,203.757 C76.813,203.757 79.773,200.365 79.773,194.814 C79.773,189.14 76.381,185.995 70.028,185.995 L57.323,185.995 L57.323,203.757 L69.658,203.757 L69.658,203.757 Z" id="Fill-18" fill="#FFFFFF" sketch:type="MSShapeGroup"></path>
            <path d="M89.475,182.356 L107.423,182.356 C112.172,182.356 115.441,183.774 117.723,186.18 C119.758,188.277 120.807,191.052 120.807,194.691 C120.807,200.92 117.6,205.053 111.987,206.594 L122.472,226.454 L117.908,226.454 L107.916,207.149 L93.607,207.149 L93.607,226.454 L89.475,226.454 L89.475,182.356 L89.475,182.356 Z M106.683,203.634 C113.714,203.634 116.674,200.365 116.674,194.814 C116.674,189.14 113.344,185.995 106.868,185.995 L93.607,185.995 L93.607,203.634 L106.683,203.634 L106.683,203.634 Z" id="Fill-19" fill="#FFFFFF" sketch:type="MSShapeGroup"></path>
            <path d="M128.232,182.356 L158.206,182.356 L158.206,185.995 L132.364,185.995 L132.364,201.845 L156.048,201.845 L156.048,205.422 L132.364,205.422 L132.364,222.63 L158.885,222.63 L158.885,226.454 L128.232,226.454 L128.232,182.356" id="Fill-20" fill="#FFFFFF" sketch:type="MSShapeGroup"></path>
            <path d="M161.759,212.145 L165.891,212.145 C166.323,219.608 171.38,223.802 179.645,223.802 C186.121,223.802 190.932,220.533 190.932,214.551 C190.932,208.321 186.799,206.841 177.363,204.929 C169.222,203.326 163.486,200.858 163.486,193.149 C163.486,186.118 169.407,181.492 178.227,181.492 C188.033,181.492 192.967,186.796 193.769,194.383 L189.76,194.383 C189.02,188.153 184.579,184.946 178.288,184.946 C171.565,184.946 167.495,188.153 167.495,193.026 C167.495,198.268 171.565,199.872 179.46,201.352 C188.033,203.017 195.126,205.114 195.126,214.366 C195.126,222.198 188.835,227.256 179.583,227.256 C167.988,227.256 162.252,220.718 161.759,212.145" id="Fill-21" fill="#FFFFFF" sketch:type="MSShapeGroup"></path>
            <path d="M202.027,182.356 L232.002,182.356 L232.002,185.995 L206.16,185.995 L206.16,201.845 L229.843,201.845 L229.843,205.422 L206.16,205.422 L206.16,222.63 L232.68,222.63 L232.68,226.454 L202.027,226.454 L202.027,182.356" id="Fill-22" fill="#FFFFFF" sketch:type="MSShapeGroup"></path>
            <path d="M238.583,182.356 L243.085,182.356 L263.376,213.317 C265.597,216.647 267.755,220.595 267.755,220.595 L267.878,220.595 L267.878,182.356 L271.826,182.356 L271.826,226.454 L267.509,226.454 L247.279,195.863 C245.244,192.779 242.653,188.4 242.653,188.4 L242.53,188.4 L242.53,226.454 L238.583,226.454 L238.583,182.356" id="Fill-23" fill="#FFFFFF" sketch:type="MSShapeGroup"></path>
            <path d="M292.179,186.056 L277.253,186.056 L277.253,182.356 L311.175,182.356 L311.175,186.056 L296.31,186.056 L296.31,226.454 L292.179,226.454 L292.179,186.056" id="Fill-24" fill="#FFFFFF" sketch:type="MSShapeGroup"></path>
            <path d="M313.605,212.145 L317.737,212.145 C318.169,219.608 323.227,223.802 331.491,223.802 C337.967,223.802 342.777,220.533 342.777,214.551 C342.777,208.321 338.646,206.841 329.209,204.929 C321.068,203.326 315.332,200.858 315.332,193.149 C315.332,186.118 321.253,181.492 330.072,181.492 C339.879,181.492 344.814,186.796 345.615,194.383 L341.606,194.383 C340.866,188.153 336.425,184.946 330.134,184.946 C323.411,184.946 319.341,188.153 319.341,193.026 C319.341,198.268 323.411,199.872 331.306,201.352 C339.879,203.017 346.972,205.114 346.972,214.366 C346.972,222.198 340.681,227.256 331.43,227.256 C319.834,227.256 314.099,220.718 313.605,212.145" id="Fill-25" fill="#FFFFFF" sketch:type="MSShapeGroup"></path>
            <path d="M356.856,219.889 C357.859,219.889 358.712,220.25 359.415,220.973 C360.118,221.696 360.469,222.56 360.469,223.563 C360.469,224.607 360.118,225.49 359.415,226.213 C358.712,226.936 357.85,227.297 356.825,227.297 C355.821,227.297 354.963,226.936 354.25,226.213 C353.537,225.49 353.182,224.617 353.182,223.593 C353.182,222.569 353.537,221.696 354.25,220.973 C354.963,220.25 355.831,219.889 356.856,219.889" id="Fill-26" fill="#FFFFFF" sketch:type="MSShapeGroup"></path>
            <path d="M372.721,219.889 C373.725,219.889 374.577,220.25 375.28,220.973 C375.983,221.696 376.334,222.56 376.334,223.563 C376.334,224.607 375.983,225.49 375.28,226.213 C374.577,226.936 373.715,227.297 372.69,227.297 C371.687,227.297 370.828,226.936 370.115,226.213 C369.402,225.49 369.047,224.617 369.047,223.593 C369.047,222.569 369.402,221.696 370.115,220.973 C370.828,220.25 371.696,219.889 372.721,219.889" id="Fill-27" fill="#FFFFFF" sketch:type="MSShapeGroup"></path>
            <path d="M388.586,219.889 C389.59,219.889 390.442,220.25 391.146,220.973 C391.849,221.696 392.199,222.56 392.199,223.563 C392.199,224.607 391.849,225.49 391.146,226.213 C390.442,226.936 389.58,227.297 388.556,227.297 C387.552,227.297 386.693,226.936 385.98,226.213 C385.268,225.49 384.912,224.617 384.912,223.593 C384.912,222.569 385.268,221.696 385.98,220.973 C386.693,220.25 387.561,219.889 388.586,219.889" id="Fill-28" fill="#FFFFFF" sketch:type="MSShapeGroup"></path>
            <path d="M96.727,400.341 C96.727,389.759 88.149,381.181 77.567,381.181 C66.985,381.181 58.407,389.759 58.407,400.341 C58.407,410.922 66.985,419.501 77.567,419.501 C88.149,419.501 96.727,410.922 96.727,400.341 L96.727,400.341 Z" id="Stroke-29" stroke="#FFFFFF" sketch:type="MSShapeGroup"></path>
        </g>
    </g>
</svg>