<?xml version="1.0" encoding="UTF-8" standalone="no"?>
<svg width="600px" height="290px" viewBox="0 0 600 290" version="1.1" xmlns="http://www.w3.org/2000/svg" xmlns:xlink="http://www.w3.org/1999/xlink" xmlns:sketch="http://www.bohemiancoding.com/sketch/ns">
    <!-- Generator: Sketch 3.3.3 (12072) - http://www.bohemiancoding.com/sketch -->
    <title>Imported Layers</title>
    <desc>Created with Sketch.</desc>
    <defs></defs>
    <g id="palettes" stroke="none" stroke-width="1" fill="none" fill-rule="evenodd" sketch:type="MSPage">
        <g id="Imported-Layers" sketch:type="MSLayerGroup" transform="translate(1.000000, 0.000000)">
            <path d="M299.383,289.152 C210.756,289.152 134.977,274.5 80.236,246.78 C28.675,220.669 0.278,184.54 0.278,145.048 C0.278,105.557 28.675,69.427 80.236,43.316 C134.977,15.596 210.756,0.943 299.383,0.943 C388.01,0.943 463.789,15.596 518.529,43.316 C570.091,69.427 598.487,105.557 598.487,145.048 C598.487,184.54 570.091,220.669 518.529,246.78 C463.789,274.5 388.01,289.152 299.383,289.152" id="Fill-1" stroke="#FFFFFF" fill="#1A1918" sketch:type="MSShapeGroup"></path>
            <path d="M118,96 L157.84,96 C169.017,96 176.469,98.841 181.914,104.57 C186.499,109.441 189.079,116.108 189.079,124.558 C189.079,143.463 178.045,154 156.549,154 L127,154 L127,197 L118,197 L118,96 L118,96 Z M155.834,146 C172.456,146 179.334,137.746 179.334,124.856 C179.334,111.682 171.452,104 156.693,104 L127,104 L127,146 L155.834,146 L155.834,146 Z" id="Fill-3" fill="#FFFFFF" sketch:type="MSShapeGroup"></path>
            <path d="M196.598,165 L206.201,165 C207.204,182 218.953,191.848 238.155,191.848 C253.201,191.848 264.378,184.146 264.378,170.253 C264.378,155.788 254.777,152.295 232.853,147.856 C213.94,144.133 200.611,138.376 200.611,120.472 C200.611,104.145 214.368,93.235 234.86,93.235 C257.644,93.235 269.108,106 270.969,123 L261.655,123 C259.935,109 249.619,101.242 235.003,101.242 C219.383,101.242 209.927,108.767 209.927,120.082 C209.927,132.255 219.383,136.017 237.725,139.455 C257.644,143.322 274.121,148.21 274.121,169.694 C274.121,187.883 259.505,199.858 238.011,199.858 C211.073,199.858 197.746,184 196.598,165" id="Fill-4" fill="#FFFFFF" sketch:type="MSShapeGroup"></path>
            <path d="M304.308,209.462 C300.901,213.518 297.242,216.431 293.324,218.203 L291.994,215.406 C296.472,212.889 299.561,210.161 301.265,207.224 C302.965,204.287 303.819,201.839 303.819,199.881 C303.819,199.228 303.609,198.808 303.189,198.623 C302.769,198.436 302.325,198.343 301.859,198.343 L297.172,198.832 C295.213,198.832 293.415,198.191 291.784,196.909 C290.151,195.628 289.336,193.775 289.336,191.35 C289.336,189.486 290.011,187.668 291.365,185.895 C292.715,184.124 294.933,183.238 298.011,183.238 C300.95,183.238 303.584,184.392 305.918,186.699 C308.247,189.007 309.416,192.214 309.416,196.315 C309.416,201.023 307.712,205.406 304.308,209.462" id="Fill-5" fill="#FFFFFF" sketch:type="MSShapeGroup"></path>
            <path d="M315.646,165 L325.246,165 C326.25,182 338.001,191.848 357.203,191.848 C372.246,191.848 383.423,184.146 383.423,170.253 C383.423,155.788 373.824,152.295 351.9,147.856 C332.984,144.133 319.659,138.376 319.659,120.472 C319.659,104.145 333.415,93.235 353.904,93.235 C376.689,93.235 388.153,106 390.017,123 L380.701,123 C378.984,109 368.664,101.242 354.048,101.242 C338.431,101.242 328.972,108.767 328.972,120.082 C328.972,132.255 338.431,136.017 356.773,139.455 C376.689,143.322 393.169,148.21 393.169,169.694 C393.169,187.883 378.553,199.858 357.06,199.858 C330.119,199.858 316.794,184 315.646,165" id="Fill-6" fill="#FFFFFF" sketch:type="MSShapeGroup"></path>
            <path d="M403.668,165 L413.271,165 C414.271,182 426.022,191.848 445.225,191.848 C460.271,191.848 471.448,184.146 471.448,170.253 C471.448,155.788 461.845,152.295 439.921,147.856 C421.009,144.133 407.681,138.376 407.681,120.472 C407.681,104.145 421.439,93.235 441.929,93.235 C464.714,93.235 476.178,106 478.039,123 L468.726,123 C467.005,109 456.689,101.242 442.073,101.242 C426.453,101.242 416.997,108.767 416.997,120.082 C416.997,132.255 426.453,136.017 444.794,139.455 C464.714,143.322 481.191,148.21 481.191,169.694 C481.191,187.883 466.575,199.858 445.081,199.858 C418.141,199.858 404.815,184 403.668,165" id="Fill-7" fill="#FFFFFF" sketch:type="MSShapeGroup"></path>
        </g>
    </g>
</svg>